<?xml version="1.0" standalone="yes"?>
<svg xmlns="http://www.w3.org/2000/svg" width="556" height="1024">
<path style="fill:#d9cefd; stroke:none;" d="M0 0L0 1024L556 1024L556 0L0 0z"/>
<path style="fill:#afadba; stroke:none;" d="M277 358L277 359L289 359L277 358M263 359L263 360L271 360L263 359z"/>
<path style="fill:#928f90; stroke:none;" d="M271 359L271 360L274 360L271 359z"/>
<path style="fill:#434343; stroke:none;" d="M274 359L274 360L277 360L274 359z"/>
<path style="fill:#1e1d1d; stroke:none;" d="M246 363L246 364C258.711 364 273.589 360.87 286 363.518C309.598 368.552 319.985 390.759 320 413L306 410C305.479 404.065 302.93 399.116 299.999 394C289.556 375.768 274.001 366.828 253.001 366.04C246.636 365.801 240.503 368 234 368L234 367L237 367L237 366C224.437 367.132 211.549 375.791 202.424 383.986C195.467 390.235 187.764 395.741 182.954 404C174.874 417.876 175.315 430.743 173.896 446C172.904 456.655 169.558 466.001 170.039 477C170.659 491.143 174.888 504.932 176 519L181 515C184.456 516.795 187.589 524.337 191.882 523.248C195.958 522.215 197.467 514.396 198.657 511C203.143 498.199 209.991 486.86 210 473L209 473L209 479L208 479C203.512 470.355 196.999 456.039 187 453C189.191 448.901 201.798 439.654 205.883 446.357C210.17 453.393 200.577 463.743 211 469C211.264 463.226 213.188 458.142 215.759 453C231.665 421.189 264.485 426.887 294 428.911C307.142 429.811 320.83 429.308 334 428.985C341.529 428.801 347.693 427.344 355 430.326C375.511 438.695 378.987 472.875 379 492C389.366 474.723 379.648 451.229 375.441 434C372.857 423.413 379.259 411.402 373.736 401C349.849 356.014 288.851 357.556 246 363z"/>
<path style="fill:#3c3634; stroke:none;" d="M286 359L286 360L290 360L286 359z"/>
<path style="fill:#516064; stroke:none;" d="M290 359L290 360L293 360L290 359z"/>
<path style="fill:#928f90; stroke:none;" d="M293.667 359.333L294.333 359.667L293.667 359.333z"/>
<path style="fill:#afadba; stroke:none;" d="M295.667 359.333L296.333 359.667L295.667 359.333M255.667 360.333L256.333 360.667L255.667 360.333z"/>
<path style="fill:#747070; stroke:none;" d="M257 360L257 361L260 361L257 360z"/>
<path style="fill:#516064; stroke:none;" d="M260.667 360.333L261.333 360.667L260.667 360.333z"/>
<path style="fill:#3c3634; stroke:none;" d="M262 360L262 361L271 361L262 360z"/>
<path style="fill:#516064; stroke:none;" d="M298 360L298 361L301 361L298 360z"/>
<path style="fill:#928f90; stroke:none;" d="M301 360L301 361L304 361L301 360z"/>
<path style="fill:#747070; stroke:none;" d="M251.667 361.333L252.333 361.667L251.667 361.333z"/>
<path style="fill:#434343; stroke:none;" d="M253 361L253 362L256 362L253 361z"/>
<path style="fill:#3c3634; stroke:none;" d="M288 361L288 362L294 362L288 361z"/>
<path style="fill:#434343; stroke:none;" d="M305 361L305 362L308 362L305 361z"/>
<path style="fill:#928f90; stroke:none;" d="M308 361L308 362L311 362L308 361M246.667 362.333L247.333 362.667L246.667 362.333z"/>
<path style="fill:#434343; stroke:none;" d="M248.667 362.333L249.333 362.667L248.667 362.333M311 362L311 363L314 363L311 362z"/>
<path style="fill:#afadba; stroke:none;" d="M314.667 362.333L315.333 362.667L314.667 362.333z"/>
<path style="fill:#747070; stroke:none;" d="M242.667 363.333L243.333 363.667L242.667 363.333z"/>
<path style="fill:#3c3634; stroke:none;" d="M244 363C244 366.301 239.632 365.554 237 365L234 367L234 368L252.004 366.058L275 370L275 369L267 367L267 366L293 366L293 365L244 363M296 363L296 364C308.825 368.759 317.864 380.864 323.242 393C325.014 397 324.417 408.421 328.434 410.393C335.598 413.911 349.764 405.49 357 404C370.271 374.301 316.614 366.031 296 363z"/>
<path style="fill:#747070; stroke:none;" d="M317.667 363.333L318.333 363.667L317.667 363.333z"/>
<path style="fill:#afadba; stroke:none;" d="M319.667 363.333L320.333 363.667L319.667 363.333z"/>
<path style="fill:#747070; stroke:none;" d="M238.667 364.333L239.333 364.667L238.667 364.333z"/>
<path style="fill:#1e1d1d; stroke:none;" d="M238 365L238 366L245 365L238 365z"/>
<path style="fill:#747070; stroke:none;" d="M321.667 364.333L322.333 364.667L321.667 364.333z"/>
<path style="fill:#434343; stroke:none;" d="M235.667 365.333L236.333 365.667L235.667 365.333M267 366L267 367C284.609 371.173 298.459 383.612 304 401C318.231 400.534 312.211 380.009 305.74 373.185C296.36 363.294 279.37 364.437 267 366z"/>
<path style="fill:#928f90; stroke:none;" d="M325.667 365.333L326.333 365.667L325.667 365.333z"/>
<path style="fill:#747070; stroke:none;" d="M231.667 366.333L232.333 366.667L231.667 366.333z"/>
<path style="fill:#afadba; stroke:none;" d="M329.667 366.333L330.333 366.667L329.667 366.333z"/>
<path style="fill:#3c3634; stroke:none;" d="M227.667 368.333L228.333 368.667L227.667 368.333M231 368L231 369L234 369L231 368z"/>
<path style="fill:#afadba; stroke:none;" d="M334.667 368.333L335.333 368.667L334.667 368.333z"/>
<path style="fill:#3c3634; stroke:none;" d="M225.667 369.333L226.333 369.667L225.667 369.333z"/>
<path style="fill:#434343; stroke:none;" d="M311 369C315.449 375.391 320.692 380.648 323.688 388C324.831 390.807 325.021 397.154 327.6 398.929C333.412 402.929 349.739 393.687 347.346 386.004C343.725 374.373 321.263 370.997 311 369z"/>
<path style="fill:#3c3634; stroke:none;" d="M217 375L217 376L248 371C238.846 367.159 225.831 371.819 217 375M276 370L276 371L280 372L280 371L276 370z"/>
<path style="fill:#afadba; stroke:none;" d="M339.667 370.333L340.333 370.667L339.667 370.333z"/>
<path style="fill:#3c3634; stroke:none;" d="M280.667 372.333L281.333 372.667L280.667 372.333M282 373L290 379L282 373z"/>
<path style="fill:#928f90; stroke:none;" d="M213 375L214 376L213 375z"/>
<path style="fill:#3c3634; stroke:none;" d="M308 376C311.103 383.761 317.572 399.969 304 401L306 410L320 413C319.999 401.207 317.927 383.667 308 376z"/>
<path style="fill:#747070; stroke:none;" d="M350 376L351 377L350 376M207 379L208 380L207 379z"/>
<path style="fill:#3c3634; stroke:none;" d="M198 399C209.145 398.77 219.748 393.609 231 394.104C255.063 395.162 274.468 405.606 297 412C287.402 386.685 251.9 377.805 228 380.075C217.768 381.047 200.379 387.768 198 399M290 379L297 388L290 379z"/>
<path style="fill:#747070; stroke:none;" d="M206 380L207 381L206 380M205 381L206 382L205 381z"/>
<path style="fill:#434343; stroke:none;" d="M210 391L260 395.514L288 404C276.045 386.312 253.033 380.523 233 381.015C225.894 381.189 212.605 383.373 210 391z"/>
<path style="fill:#747070; stroke:none;" d="M359 383L360 384L359 383M201 385L202 386L201 385z"/>
<path style="fill:#928f90; stroke:none;" d="M198 387L199 388L198 387z"/>
<path style="fill:#3c3634; stroke:none;" d="M297.333 388.667L297.667 389.333L297.333 388.667z"/>
<path style="fill:#747070; stroke:none;" d="M364 388L365 389L364 388z"/>
<path style="fill:#3c3634; stroke:none;" d="M298.333 390.667L298.667 391.333L298.333 390.667z"/>
<path style="fill:#747070; stroke:none;" d="M192 392L193 393L192 392z"/>
<path style="fill:#3c3634; stroke:none;" d="M299 392L301 395L299 392z"/>
<path style="fill:#747070; stroke:none;" d="M191 393L192 394L191 393z"/>
<path style="fill:#928f90; stroke:none;" d="M368 393L369 394L368 393z"/>
<path style="fill:#747070; stroke:none;" d="M190 394L191 395L190 394M189 395L190 396L189 395z"/>
<path style="fill:#3c3634; stroke:none;" d="M301 395L303 401L304 401L301 395z"/>
<path style="fill:#747070; stroke:none;" d="M185 400L186 401L185 400z"/>
<path style="fill:#3c3634; stroke:none;" d="M375.333 404.667L375.667 405.333L375.333 404.667z"/>
<path style="fill:#928f90; stroke:none;" d="M376.333 406.667L376.667 407.333L376.333 406.667z"/>
<path style="fill:#3c3634; stroke:none;" d="M180.333 408.667L180.667 409.333L180.333 408.667z"/>
<path style="fill:#434343; stroke:none;" d="M376.333 408.667L376.667 409.333L376.333 408.667z"/>
<path style="fill:#3c3634; stroke:none;" d="M179.333 410.667L179.667 411.333L179.333 410.667M376 410L376 415L377 415L376 410z"/>
<path style="fill:#434343; stroke:none;" d="M177.333 415.667L177.667 416.333L177.333 415.667z"/>
<path style="fill:#928f90; stroke:none;" d="M376.333 415.667L376.667 416.333L376.333 415.667z"/>
<path style="fill:#747070; stroke:none;" d="M176.333 417.667L176.667 418.333L176.333 417.667z"/>
<path style="fill:#afadba; stroke:none;" d="M375.333 419.667L375.667 420.333L375.333 419.667z"/>
<path style="fill:#516064; stroke:none;" d="M175.333 421.667L175.667 422.333L175.333 421.667z"/>
<path style="fill:#928f90; stroke:none;" d="M174 424L174 427L175 427L174 424M376 424L376 428L377 428L376 424z"/>
<path style="fill:#3c3634; stroke:none;" d="M262 426L262 427L272 427L262 426z"/>
<path style="fill:#434343; stroke:none;" d="M174.333 427.667L174.667 428.333L174.333 427.667z"/>
<path style="fill:#3c3634; stroke:none;" d="M252 427L252 428L255 428L252 427z"/>
<path style="fill:#7e4d38; stroke:none;" d="M255 427L255 428L279 428L255 427z"/>
<path style="fill:#434343; stroke:none;" d="M279.667 427.333L280.333 427.667L279.667 427.333z"/>
<path style="fill:#3c3634; stroke:none;" d="M281 427L281 428L284 428L281 427M245 428L245 429L248 429L245 428z"/>
<path style="fill:#7e4d38; stroke:none;" d="M244 429L244 430L253 429L244 429z"/>
<path style="fill:#97674e; stroke:none;" d="M253 428L253 429L261 429L253 428z"/>
<path style="fill:#ab7961; stroke:none;" d="M261 428L261 429L272 429L261 428z"/>
<path style="fill:#97674e; stroke:none;" d="M272 428L272 429L280 429L272 428z"/>
<path style="fill:#7e4d38; stroke:none;" d="M280 428L280 429L288 429L280 428z"/>
<path style="fill:#434343; stroke:none;" d="M288 428L288 429L291 429L288 428z"/>
<path style="fill:#3c3634; stroke:none;" d="M339 428L339 429L350 429L339 428z"/>
<path style="fill:#afadba; stroke:none;" d="M173 429L173 434L174 434L173 429z"/>
<path style="fill:#3c3634; stroke:none;" d="M241 429L241 430L244 430L241 429z"/>
<path style="fill:#97674e; stroke:none;" d="M248 429L248 430L251 430L248 429z"/>
<path style="fill:#ab7961; stroke:none;" d="M251.667 429.333L252.333 429.667L251.667 429.333z"/>
<path style="fill:#c28f77; stroke:none;" d="M253 429L253 430L258 430L253 429z"/>
<path style="fill:#ddad97; stroke:none;" d="M299 624C293.465 611.501 294.085 607.104 306 598L306 597C302.135 595.961 298.954 593.49 295 592.634C286.062 590.701 274.927 591.628 267.015 586.231C257.014 579.41 249.753 560.837 244.911 550C242.242 544.026 233.281 533.48 237 527L237 526L235 521L236 521L237 524L238 524C247.95 510.943 259.15 510.149 273 504.436C277.453 502.599 280.809 498.423 285 496L285 495L277 500L266 495L266 494L273 494L273 493L253 494L253 495L263 498L263 499L247 497L247 496L252 496L252 495L235 498L253 484L257 485L265 482.167L292 485.5L300 493L300 494L293 493L293 495C301.297 495.73 309.708 500.811 309 510L310 510L316 504L315 502L318 502C315.993 486.58 339.871 477.553 346.812 465.83C353.909 453.844 346.885 444.346 344 433C330.022 431.233 316.018 432.87 302 431.911C286.486 430.848 270.502 427.715 255 429.87C245.36 431.21 232.839 432.475 226.938 441.425C219.526 452.668 230.985 474.541 231 487C231.018 501.72 228.003 516.179 229.09 531C231.882 569.045 255.949 621.738 299 624z"/>
<path style="fill:#c28f77; stroke:none;" d="M272 429L272 430L280 430L272 429z"/>
<path style="fill:#ab7961; stroke:none;" d="M280 429L280 430L283 430L280 429z"/>
<path style="fill:#97674e; stroke:none;" d="M283 429L283 430L290 430L283 429z"/>
<path style="fill:#7e4d38; stroke:none;" d="M290 429L290 430L303 430L290 429z"/>
<path style="fill:#3c3634; stroke:none;" d="M303 429L303 430L331 430L303 429z"/>
<path style="fill:#7e4d38; stroke:none;" d="M331 429L331 430L334 430L331 429z"/>
<path style="fill:#97674e; stroke:none;" d="M334 429L334 430L338 430L334 429z"/>
<path style="fill:#ab7961; stroke:none;" d="M338 429L338 430C362.295 430.201 364.813 442.054 367.285 463C368.037 469.364 371.024 478.08 366 483L366 484L375 490C373.722 473.803 376.458 442.192 359.946 432.557C353.689 428.906 345.016 429.001 338 429z"/>
<path style="fill:#97674e; stroke:none;" d="M348.667 429.333L349.333 429.667L348.667 429.333z"/>
<path style="fill:#7e4d38; stroke:none;" d="M350 429L350 430L353 430L350 429z"/>
<path style="fill:#434343; stroke:none;" d="M238.667 430.333L239.333 430.667L238.667 430.333z"/>
<path style="fill:#7e4d38; stroke:none;" d="M233 433L233 434L243 431L233 433z"/>
<path style="fill:#97674e; stroke:none;" d="M243 430L243 431L246 431L243 430z"/>
<path style="fill:#a8856e; stroke:none;" d="M246.667 430.333L247.333 430.667L246.667 430.333z"/>
<path style="fill:#c28f77; stroke:none;" d="M248 430L248 431L251 431L248 430M284 430L284 431L291 431L284 430z"/>
<path style="fill:#a8856e; stroke:none;" d="M291 430L291 431L294 431L291 430z"/>
<path style="fill:#ab7961; stroke:none;" d="M294 430L294 431L297 431L294 430z"/>
<path style="fill:#97674e; stroke:none;" d="M297 430L297 431L325 431L297 430z"/>
<path style="fill:#ab7961; stroke:none;" d="M325 430L325 431L328 431L325 430z"/>
<path style="fill:#a8856e; stroke:none;" d="M328.667 430.333L329.333 430.667L328.667 430.333z"/>
<path style="fill:#c28f77; stroke:none;" d="M298 431L298 432L344 433C344.158 438.838 349.314 443.822 350 450C352.116 469.043 333.447 476.455 322.833 488C319.874 491.219 317.675 501.655 315 502L315 503L330 505L342 494L342 493L327 504L327 501L337 492C338.128 480.175 356.251 480.376 365 482C364.561 469.7 368.577 446.518 360.5 435.333C357.058 430.568 348.017 431.488 343 431C328.317 429.572 312.99 431 298 431z"/>
<path style="fill:#a8856e; stroke:none;" d="M340 430L340 431L346 431L340 430z"/>
<path style="fill:#7e4d38; stroke:none;" d="M354 430L354 431L357 431L354 430z"/>
<path style="fill:#ab7961; stroke:none;" d="M241.667 431.333L242.333 431.667L241.667 431.333z"/>
<path style="fill:#c28f77; stroke:none;" d="M243.667 431.333L244.333 431.667L243.667 431.333z"/>
<path style="fill:#a8856e; stroke:none;" d="M350 431L350 432L353 432L350 431z"/>
<path style="fill:#97674e; stroke:none;" d="M237.667 432.333L238.333 432.667L237.667 432.333z"/>
<path style="fill:#c28f77; stroke:none;" d="M239.667 432.333L240.333 432.667L239.667 432.333z"/>
<path style="fill:#e9beae; stroke:none;" d="M274 432.532C258.054 436.325 253.088 450.381 254.09 465C254.394 469.446 254.353 476.178 258.228 479.107C261.734 481.756 266.882 481 271 481C281.394 481 293.929 481.444 304 478.865C321.596 474.359 323.258 448.843 311.812 437.109C305.289 430.422 282.873 430.422 274 432.532z"/>
<path style="fill:#c28f77; stroke:none;" d="M236.667 433.333L237.333 433.667L236.667 433.333z"/>
<path style="fill:#928f90; stroke:none;" d="M173 434L173 444L174 444L173 434z"/>
<path style="fill:#97674e; stroke:none;" d="M232 434L232 436L234 434L232 434z"/>
<path style="fill:#c28f77; stroke:none;" d="M234.667 434.333L235.333 434.667L234.667 434.333z"/>
<path style="fill:#7e4d38; stroke:none;" d="M222 443L232 436C227.168 434.49 223.865 439.015 222 443z"/>
<path style="fill:#c28f77; stroke:none;" d="M232 436C214.776 443.682 213.91 462.996 211.41 479C210.704 483.515 208.229 489.218 208.668 493.714C209.651 503.785 215.109 513.812 216.572 524C217.523 530.628 216.357 537.384 217.3 544C220.378 565.591 230.15 589.83 245.003 605.985C255.523 617.427 267.729 629.144 280.001 638.704C283.667 641.561 290.936 645.943 295.126 641.967C298.254 638.998 304.502 629.531 301.396 625.369C298.52 621.516 290.442 624.313 286.17 622.191C272.927 615.614 257.333 604.636 249.37 591.996C239.188 575.835 229.911 548.201 229.039 529C228.323 513.214 231.675 497.726 230.961 482C230.147 464.086 220.443 451.967 232 436z"/>
<path style="fill:#a8856e; stroke:none;" d="M361 436L365.039 467L364 480L364 481L365 483C370.454 481.19 368.863 475.709 368.285 471C367.155 461.802 369.316 441.916 361 436z"/>
<path style="fill:#97674e; stroke:none;" d="M364.333 436.667L364.667 437.333L364.333 436.667z"/>
<path style="fill:#3c3634; stroke:none;" d="M185 438L187 441L188 440L187 438L185 438z"/>
<path style="fill:#97674e; stroke:none;" d="M366.333 439.667L366.667 440.333L366.333 439.667z"/>
<path style="fill:#3c3634; stroke:none;" d="M377.333 439.667L377.667 440.333L377.333 439.667z"/>
<path style="fill:#747070; stroke:none;" d="M378 442L378 445L379 445L378 442z"/>
<path style="fill:#97674e; stroke:none;" d="M220 446L223 443L220 446z"/>
<path style="fill:#747070; stroke:none;" d="M173 444L173 447L174 447L173 444z"/>
<path style="fill:#3c3634; stroke:none;" d="M187 453C197.616 458.335 201.138 470.025 208 479L209 479L209 473L210 473L210 478C213.21 470.35 205.422 464.098 205.725 456C205.833 453.094 207.962 448.177 205.958 445.618C201.405 439.808 188.68 448.203 187 453z"/>
<path style="fill:#97674e; stroke:none;" d="M369.333 445.667L369.667 446.333L369.333 445.667z"/>
<path style="fill:#a8856e; stroke:none;" d="M219 446L219 448L221 446L219 446z"/>
<path style="fill:#3c3634; stroke:none;" d="M173 447L173 450L174 450L173 447z"/>
<path style="fill:#ab7961; stroke:none;" d="M218.333 447.667L218.667 448.333L218.333 447.667z"/>
<path style="fill:#97674e; stroke:none;" d="M370.333 447.667L370.667 448.333L370.333 447.667z"/>
<path style="fill:#3c3634; stroke:none;" d="M380.333 448.667L380.667 449.333L380.333 448.667z"/>
<path style="fill:#a8856e; stroke:none;" d="M217.333 449.667L217.667 450.333L217.333 449.667z"/>
<path style="fill:#7e4d38; stroke:none;" d="M371.333 449.667L371.667 450.333L371.333 449.667z"/>
<path style="fill:#516064; stroke:none;" d="M172.333 450.667L172.667 451.333L172.333 450.667M381.333 450.667L381.667 451.333L381.333 450.667z"/>
<path style="fill:#ab7961; stroke:none;" d="M216.333 451.667L216.667 452.333L216.333 451.667z"/>
<path style="fill:#7e4d38; stroke:none;" d="M372.333 452.667L372.667 453.333L372.333 452.667z"/>
<path style="fill:#928f90; stroke:none;" d="M171.333 453.667L171.667 454.333L171.333 453.667z"/>
<path style="fill:#97674e; stroke:none;" d="M215.333 453.667L215.667 454.333L215.333 453.667M372 454L374 492L378 491C378 479.816 378.117 463.735 372 454z"/>
<path style="fill:#928f90; stroke:none;" d="M382 454L382 457L383 457L382 454z"/>
<path style="fill:#434343; stroke:none;" d="M171.333 455.667L171.667 456.333L171.333 455.667z"/>
<path style="fill:#97674e; stroke:none;" d="M214.333 455.667L214.667 456.333L214.333 455.667z"/>
<path style="fill:#7e4d38; stroke:none;" d="M373.333 455.667L373.667 456.333L373.333 455.667M213.333 457.667L213.667 458.333L213.333 457.667z"/>
<path style="fill:#a8856e; stroke:none;" d="M214.333 457.667L214.667 458.333L214.333 457.667z"/>
<path style="fill:#434343; stroke:none;" d="M382.333 457.667L382.667 458.333L382.333 457.667z"/>
<path style="fill:#747070; stroke:none;" d="M170.333 458.667L170.667 459.333L170.333 458.667z"/>
<path style="fill:#434343; stroke:none;" d="M374.333 458.667L374.667 459.333L374.333 458.667z"/>
<path style="fill:#97674e; stroke:none;" d="M213.333 459.667L213.667 460.333L213.333 459.667z"/>
<path style="fill:#3c3634; stroke:none;" d="M382.333 459.667L382.667 460.333L382.333 459.667M170.333 460.667L170.667 461.333L170.333 460.667z"/>
<path style="fill:#434343; stroke:none;" d="M212 460L212 463L213 463L212 460z"/>
<path style="fill:#a8856e; stroke:none;" d="M213.333 461.667L213.667 462.333L213.333 461.667z"/>
<path style="fill:#afadba; stroke:none;" d="M169.333 462.667L169.667 463.333L169.333 462.667z"/>
<path style="fill:#434343; stroke:none;" d="M375 462L375 465L376 465L375 462z"/>
<path style="fill:#afadba; stroke:none;" d="M383 462L383 474L384 474L383 462z"/>
<path style="fill:#3c3634; stroke:none;" d="M211 463L211 468L212 468L211 463z"/>
<path style="fill:#97674e; stroke:none;" d="M212.333 463.667L212.667 464.333L212.333 463.667z"/>
<path style="fill:#928f90; stroke:none;" d="M169.333 464.667L169.667 465.333L169.333 464.667z"/>
<path style="fill:#ab7961; stroke:none;" d="M212 465L212 468L213 468L212 465z"/>
<path style="fill:#747070; stroke:none;" d="M169 466L169 469L170 469L169 466z"/>
<path style="fill:#3c3634; stroke:none;" d="M376.333 467.667L376.667 468.333L376.333 467.667z"/>
<path style="fill:#7e4d38; stroke:none;" d="M211.333 468.667L211.667 469.333L211.333 468.667z"/>
<path style="fill:#a8856e; stroke:none;" d="M212.333 468.667L212.667 469.333L212.333 468.667z"/>
<path style="fill:#434343; stroke:none;" d="M169.333 469.667L169.667 470.333L169.333 469.667z"/>
<path style="fill:#7e4d38; stroke:none;" d="M376.333 469.667L376.667 470.333L376.333 469.667z"/>
<path style="fill:#97674e; stroke:none;" d="M211 470L211 475L212 475L211 470z"/>
<path style="fill:#3c3634; stroke:none;" d="M382 470L382 474L383 474L382 470z"/>
<path style="fill:#516064; stroke:none;" d="M169 471L169 475L170 475L169 471z"/>
<path style="fill:#434343; stroke:none;" d="M377.333 474.667L377.667 475.333L377.333 474.667M382 474L382 477L383 477L382 474z"/>
<path style="fill:#747070; stroke:none;" d="M169.333 475.667L169.667 476.333L169.333 475.667z"/>
<path style="fill:#ab7961; stroke:none;" d="M211.333 475.667L211.667 476.333L211.333 475.667z"/>
<path style="fill:#7e4d38; stroke:none;" d="M377 476L377 480L378 480L377 476z"/>
<path style="fill:#928f90; stroke:none;" d="M169 477L169 480L170 480L169 477z"/>
<path style="fill:#a8856e; stroke:none;" d="M211.333 477.667L211.667 478.333L211.333 477.667z"/>
<path style="fill:#747070; stroke:none;" d="M382.333 477.667L382.667 478.333L382.333 477.667z"/>
<path style="fill:#7e4d38; stroke:none;" d="M210 478L210 481L211 481L210 478z"/>
<path style="fill:#928f90; stroke:none;" d="M382.333 479.667L382.667 480.333L382.333 479.667z"/>
<path style="fill:#afadba; stroke:none;" d="M169.333 480.667L169.667 481.333L169.333 480.667z"/>
<path style="fill:#3c3634; stroke:none;" d="M170 481L170 484L171 484L170 481z"/>
<path style="fill:#ab7961; stroke:none;" d="M210.333 481.667L210.667 482.333L210.333 481.667z"/>
<path style="fill:#a8856e; stroke:none;" d="M351 481L351 482L354 482L351 481z"/>
<path style="fill:#97674e; stroke:none;" d="M354 481L354 482L360 482L354 481z"/>
<path style="fill:#ab7961; stroke:none;" d="M360 481L360 482L363 482L360 481z"/>
<path style="fill:#afadba; stroke:none;" d="M382.333 481.667L382.667 482.333L382.333 481.667z"/>
<path style="fill:#434343; stroke:none;" d="M209 482L209 485L210 485L209 482z"/>
<path style="fill:#e9beae; stroke:none;" d="M261 482L261 483L267 483L261 482M276 482L276 483L281 483L276 482z"/>
<path style="fill:#97674e; stroke:none;" d="M347.667 482.333L348.333 482.667L347.667 482.333z"/>
<path style="fill:#7e4d38; stroke:none;" d="M349.667 482.333L350.333 482.667L349.667 482.333z"/>
<path style="fill:#434343; stroke:none;" d="M351 482L351 483L354 483L351 482z"/>
<path style="fill:#3c3634; stroke:none;" d="M338 492L368 489C368.458 492.006 371.306 491.318 374 491C367.891 480.915 338.508 476.519 338 492z"/>
<path style="fill:#97674e; stroke:none;" d="M363.667 482.333L364.333 482.667L363.667 482.333z"/>
<path style="fill:#3c3634; stroke:none;" d="M378 482L378 487L379 487L378 482z"/>
<path style="fill:#a8856e; stroke:none;" d="M210.333 483.667L210.667 484.333L210.333 483.667z"/>
<path style="fill:#e9beae; stroke:none;" d="M256 483L256 484L259 484L256 483z"/>
<path style="fill:#c28f77; stroke:none;" d="M260 483L260 484L263 484L260 483z"/>
<path style="fill:#a8856e; stroke:none;" d="M263 483L263 484L266 484L263 483z"/>
<path style="fill:#747070; stroke:none;" d="M266 483L266 484L272 484L266 483z"/>
<path style="fill:#97674e; stroke:none;" d="M272 483L272 484L277 484L272 483z"/>
<path style="fill:#a8856e; stroke:none;" d="M277.667 483.333L278.333 483.667L277.667 483.333z"/>
<path style="fill:#c28f77; stroke:none;" d="M279.667 483.333L280.333 483.667L279.667 483.333z"/>
<path style="fill:#97674e; stroke:none;" d="M343.667 483.333L344.333 483.667L343.667 483.333z"/>
<path style="fill:#434343; stroke:none;" d="M345.667 483.333L346.333 483.667L345.667 483.333M381 483L381 486L382 486L381 483z"/>
<path style="fill:#747070; stroke:none;" d="M170.333 484.667L170.667 485.333L170.333 484.667z"/>
<path style="fill:#e9beae; stroke:none;" d="M253.667 484.333L254.333 484.667L253.667 484.333z"/>
<path style="fill:#97674e; stroke:none;" d="M257.667 484.333L258.333 484.667L257.667 484.333z"/>
<path style="fill:#7e4d38; stroke:none;" d="M259.667 484.333L260.333 484.667L259.667 484.333z"/>
<path style="fill:#434343; stroke:none;" d="M261.667 484.333L262.333 484.667L261.667 484.333z"/>
<path style="fill:#3c3634; stroke:none;" d="M236 497C245.819 496.551 255.035 491.88 265 491.375C270.851 491.078 276.205 493.942 282 493.97C285.061 493.985 295.172 493.962 294.534 489.039C293.936 484.427 283.372 484.873 280 484.424C267.211 482.725 243.265 484.223 236 497z"/>
<path style="fill:#434343; stroke:none;" d="M280 484L280 485L283 485L280 484z"/>
<path style="fill:#97674e; stroke:none;" d="M283.667 484.333L284.333 484.667L283.667 484.333z"/>
<path style="fill:#a8856e; stroke:none;" d="M285.667 484.333L286.333 484.667L285.667 484.333z"/>
<path style="fill:#7e4d38; stroke:none;" d="M340.667 484.333L341.333 484.667L340.667 484.333z"/>
<path style="fill:#ab7961; stroke:none;" d="M209.333 485.667L209.667 486.333L209.333 485.667M253.667 485.333L254.333 485.667L253.667 485.333z"/>
<path style="fill:#434343; stroke:none;" d="M255.667 485.333L256.333 485.667L255.667 485.333z"/>
<path style="fill:#7e4d38; stroke:none;" d="M288 485L288 486L291 486L288 485z"/>
<path style="fill:#a8856e; stroke:none;" d="M291.667 485.333L292.333 485.667L291.667 485.333z"/>
<path style="fill:#afadba; stroke:none;" d="M170 486L170 489L171 489L170 486z"/>
<path style="fill:#7e4d38; stroke:none;" d="M208.333 486.667L208.667 487.333L208.333 486.667M251.667 486.333L252.333 486.667L251.667 486.333z"/>
<path style="fill:#928f90; stroke:none;" d="M381.333 486.667L381.667 487.333L381.333 486.667z"/>
<path style="fill:#a8856e; stroke:none;" d="M209 487C202.916 504.14 207.039 522.805 211.711 540C221.157 574.761 234.213 601.134 260.719 625.826C271.854 636.199 281.581 646.264 296 651.866C300.957 653.792 310.214 656.212 314.392 651.431C319.908 645.12 305.806 642.333 304.148 637.945C302.939 634.745 304.671 629.686 304 626L303 626C301.812 630.699 297.399 642.244 291.906 643.212C287.532 643.983 282.007 639.638 279.004 636.981C269.621 628.682 259.285 620.544 250.745 611.385C233.2 592.568 221.919 569.391 217.464 544C214.163 525.19 214.194 505.326 209 487z"/>
<path style="fill:#434343; stroke:none;" d="M249.667 487.333L250.333 487.667L249.667 487.333M337 487L337 491L338 491L337 487z"/>
<path style="fill:#7e4d38; stroke:none;" d="M378 487L378 491L379 491L378 487z"/>
<path style="fill:#ab7961; stroke:none;" d="M208.333 488.667L208.667 489.333L208.333 488.667z"/>
<path style="fill:#747070; stroke:none;" d="M246.667 488.333L247.333 488.667L246.667 488.333z"/>
<path style="fill:#97674e; stroke:none;" d="M295 488L295 491L296 491L295 488z"/>
<path style="fill:#a8856e; stroke:none;" d="M336.333 488.667L336.667 489.333L336.333 488.667z"/>
<path style="fill:#434343; stroke:none;" d="M171 489L171 492L172 492L171 489z"/>
<path style="fill:#97674e; stroke:none;" d="M207.333 489.667L207.667 490.333L207.333 489.667z"/>
<path style="fill:#7e4d38; stroke:none;" d="M244.667 489.333L245.333 489.667L244.667 489.333z"/>
<path style="fill:#434343; stroke:none;" d="M356 489L356 490L361 490L356 489z"/>
<path style="fill:#1e1d1d; stroke:none;" d="M365 489L365 490L368 490L365 489z"/>
<path style="fill:#434343; stroke:none;" d="M380 489L380 492L381 492L380 489z"/>
<path style="fill:#7e4d38; stroke:none;" d="M353.667 490.333L354.333 490.667L353.667 490.333z"/>
<path style="fill:#ab7961; stroke:none;" d="M355 490L355 491L363 491L355 490z"/>
<path style="fill:#97674e; stroke:none;" d="M363.667 490.333L364.333 490.667L363.667 490.333z"/>
<path style="fill:#7e4d38; stroke:none;" d="M365.667 490.333L366.333 490.667L365.667 490.333z"/>
<path style="fill:#97674e; stroke:none;" d="M206.333 491.667L206.667 492.333L206.333 491.667z"/>
<path style="fill:#434343; stroke:none;" d="M241.667 491.333L242.333 491.667L241.667 491.333M263 491L263 492L269 492L263 491z"/>
<path style="fill:#c28f77; stroke:none;" d="M293 492L293 493L300 494L293 492z"/>
<path style="fill:#a8856e; stroke:none;" d="M327 501L327 504L339 492C332.297 491.87 330.945 496.678 327 501z"/>
<path style="fill:#1e1d1d; stroke:none;" d="M341.667 491.333L342.333 491.667L341.667 491.333z"/>
<path style="fill:#ab7961; stroke:none;" d="M351 491L356 493L351 491z"/>
<path style="fill:#a8856e; stroke:none;" d="M354 491L354 492L355 495L356 496C361.137 495.103 367.157 497.999 369 492L365 493L354 491z"/>
<path style="fill:#ab7961; stroke:none;" d="M365 493L368 491L365 493z"/>
<path style="fill:#434343; stroke:none;" d="M368.667 491.333L369.333 491.667L368.667 491.333z"/>
<path style="fill:#1e1d1d; stroke:none;" d="M371 491L371 492L374 492L371 491z"/>
<path style="fill:#a8856e; stroke:none;" d="M375 491L375 493L379 493L379 491L375 491z"/>
<path style="fill:#928f90; stroke:none;" d="M171.333 492.667L171.667 493.333L171.333 492.667z"/>
<path style="fill:#434343; stroke:none;" d="M246 492L246 493L249 493L246 492z"/>
<path style="fill:#7e4d38; stroke:none;" d="M256.667 492.333L257.333 492.667L256.667 492.333z"/>
<path style="fill:#97674e; stroke:none;" d="M258 492L258 493L261 493L258 492z"/>
<path style="fill:#a8856e; stroke:none;" d="M261 492L261 493L266 493L261 492z"/>
<path style="fill:#c28f77; stroke:none;" d="M266 492L266 493L270 493L266 492z"/>
<path style="fill:#97674e; stroke:none;" d="M270 492L270 493L273 493L270 492z"/>
<path style="fill:#434343; stroke:none;" d="M273.667 492.333L274.333 492.667L273.667 492.333M339 492L339 493L343 493L339 492z"/>
<path style="fill:#747070; stroke:none;" d="M343 492L343 493L349 493L343 492z"/>
<path style="fill:#a8856e; stroke:none;" d="M349 492L349 493L352 493L349 492z"/>
<path style="fill:#ab7961; stroke:none;" d="M369 492L369 494L371 494L371 492L369 492z"/>
<path style="fill:#434343; stroke:none;" d="M371.667 492.333L372.333 492.667L371.667 492.333z"/>
<path style="fill:#747070; stroke:none;" d="M373 492L373 494L375 494L375 492L373 492z"/>
<path style="fill:#516064; stroke:none;" d="M379 492L379 495L380 495L379 492z"/>
<path style="fill:#97674e; stroke:none;" d="M205.333 493.667L205.667 494.333L205.333 493.667z"/>
<path style="fill:#434343; stroke:none;" d="M238.667 493.333L239.333 493.667L238.667 493.333z"/>
<path style="fill:#ab7961; stroke:none;" d="M251.667 493.333L252.333 493.667L251.667 493.333z"/>
<path style="fill:#c28f77; stroke:none;" d="M253 493L253 494L256 494L253 493M266 494L266 495L277 500L283 496L283 495L275 493L266 494z"/>
<path style="fill:#97674e; stroke:none;" d="M275.667 493.333L276.333 493.667L275.667 493.333z"/>
<path style="fill:#516064; stroke:none;" d="M287.667 493.333L288.333 493.667L287.667 493.333z"/>
<path style="fill:#747070; stroke:none;" d="M289 493L289 494L292 494L289 493z"/>
<path style="fill:#c28f77; stroke:none;" d="M292 493L272 504.436L256 510C266.61 508.001 296.927 508.386 296.816 524C296.766 531.15 290.772 533.338 288 539L292 535C303.529 544.665 304.795 515.997 311 511L311 517L320 519C320.984 531.463 324.459 539.871 319 551C321.898 552.179 324.608 553.37 327.285 555.005C345.443 566.095 312.788 577.296 308.049 564.945C306.289 560.357 310.341 556.403 311 552C299.088 555.011 293.445 571.43 306 578L301 563L305 563C306.742 574.191 321.679 573.288 329.999 570.364C334.528 568.773 340.045 565.842 338.088 560C336.758 556.031 332.854 552.878 330 550C337.711 555.435 347.984 570.648 335.956 577.772C328.905 581.947 318.671 579.969 311 579L311 580C319.384 582.379 333.417 580.393 334 591L329 591L329 592C339.621 592.545 349.371 596.469 353 607C371.148 595.045 370.482 565.937 374 547C365.08 552.88 359.461 562.935 356 573C341.023 568.511 344.366 542.8 331 535L332 540L328 540L321 516L321 515L325 516L325 515L320 513L320 512L325 513L325 512L320 510L320 509L328 510L328 515L329 515L329 509C323.882 508.05 314.06 506.081 310 510L309 510C311.115 498.504 299.513 497.261 292 493z"/>
<path style="fill:#a8856e; stroke:none;" d="M342 493L342 494L346 494L346 495L342 495L342 496L344 497C331.043 508.148 350.275 506.139 357 506L357 505L349 504L354 498L354 495L342 493z"/>
<path style="fill:#c28f77; stroke:none;" d="M348 493L348 494L354 495L354 498L349 504L373 512C372.951 506.041 372.098 501.49 368 497L371 494L348 493z"/>
<path style="fill:#a8856e; stroke:none;" d="M371 493L368 497C371.484 502.139 374.291 507.043 371 513C378.431 522.782 376.441 531.599 375 543C379.618 541.112 380.851 538.926 381 534L380 534L379 540L378 540C380.122 531.087 381.375 503.41 374 497L375 495L373 493L371 493z"/>
<path style="fill:#ab7961; stroke:none;" d="M375 493L374 497L377 506L378 506L378 493L375 493z"/>
<path style="fill:#97674e; stroke:none;" d="M378 493L378 498L379 498L378 493z"/>
<path style="fill:#afadba; stroke:none;" d="M171.333 494.667L171.667 495.333L171.333 494.667z"/>
<path style="fill:#a8856e; stroke:none;" d="M247.667 494.333L248.333 494.667L247.667 494.333z"/>
<path style="fill:#e9beae; stroke:none;" d="M251.667 494.333L252.333 494.667L251.667 494.333z"/>
<path style="fill:#ddad97; stroke:none;" d="M274 494L274 495L277 495L274 494z"/>
<path style="fill:#97674e; stroke:none;" d="M278.667 494.333L279.333 494.667L278.667 494.333z"/>
<path style="fill:#7e4d38; stroke:none;" d="M280 494L280 495L285 495L280 494z"/>
<path style="fill:#747070; stroke:none;" d="M285.667 494.333L286.333 494.667L285.667 494.333z"/>
<path style="fill:#a8856e; stroke:none;" d="M287 494L287 495L290 495L287 494z"/>
<path style="fill:#ab7961; stroke:none;" d="M330 508L326 508L326 509L333 522L334 522C334.609 515.772 342.754 510.721 348 508L348 507C335.6 506.853 345.176 501.356 342 496L342 495L346 495C337.698 491.767 330.417 500.38 330 508z"/>
<path style="fill:#97674e; stroke:none;" d="M373.667 494.333L374.333 494.667L373.667 494.333z"/>
<path style="fill:#ab7961; stroke:none;" d="M205 495C202.863 500.4 198.044 522.892 191.025 522.945C187.506 522.972 185.127 518.328 181 518L181 523C189.943 519.746 190.575 538.608 190 544L187 544L185 539L184 539L184 543L169 531L169 529L172 528L172 527C170.126 527.216 165.746 527.62 166.752 530.694C167.888 534.167 175.262 536.57 177.856 539.181C183.925 545.286 196.481 569.033 191 576L191 577L198 575L197 554C200.701 556.14 201.028 559.638 203.506 562.91C209.436 570.741 214.992 577.129 219.743 586C231.023 607.062 246.613 623.022 264.575 638.272C272.978 645.406 281.367 653.048 292 656.644C312.398 663.543 339.496 654.677 343 630C349.177 628.1 356.027 618.236 359.671 612.826C373.65 592.072 377 568.511 377 544L376 544C369.761 564.533 373.419 587.715 358.335 605.424C354.312 610.147 351.585 616.08 345 617L345 607L346 607L346 609L347 609C346.996 603.409 347.133 598.754 341 597C347.548 609.53 336.465 611.443 333 622L341 617C338.921 621.32 340.085 626.74 337.682 630.725C333.622 637.457 321.921 639.643 315 638L317 634L307 629L307 628L323 627L323 626L317 626L317 625L327 626L327 625C314.515 622.682 304.25 624.649 295 614L294 614C295.358 620.729 302.1 623.085 304.049 629.089C305.269 632.85 301.536 636.301 304.376 639.725C306.779 642.623 315.762 644.192 315.079 648.999C314.124 655.723 303.15 654.029 299 652.616C283.676 647.4 274.185 637.125 262.421 626.625C233.173 600.522 218.898 569.712 209.514 532C206.666 520.554 209.166 505.568 205 495z"/>
<path style="fill:#c28f77; stroke:none;" d="M244.667 495.333L245.333 495.667L244.667 495.333M247 496L247 497L263 499C258.151 494.726 253 495.53 247 496z"/>
<path style="fill:#928f90; stroke:none;" d="M379.333 495.667L379.667 496.333L379.333 495.667z"/>
<path style="fill:#516064; stroke:none;" d="M172 496L172 499L173 499L172 496z"/>
<path style="fill:#a8856e; stroke:none;" d="M235.333 496.667L235.667 497.333L235.333 496.667z"/>
<path style="fill:#c28f77; stroke:none;" d="M241.667 496.333L242.333 496.667L241.667 496.333z"/>
<path style="fill:#7e4d38; stroke:none;" d="M236 497L236 498L239 498L236 497z"/>
<path style="fill:#c28f77; stroke:none;" d="M242 498L242 499L247 498L242 498z"/>
<path style="fill:#a8856e; stroke:none;" d="M337.667 497.333L338.333 497.667L337.667 497.333z"/>
<path style="fill:#97674e; stroke:none;" d="M203.333 498.667L203.667 499.333L203.333 498.667z"/>
<path style="fill:#ddad97; stroke:none;" d="M365 498L361 502L365 498z"/>
<path style="fill:#afadba; stroke:none;" d="M172 499L172 502L173 502L172 499z"/>
<path style="fill:#7e4d38; stroke:none;" d="M202.333 500.667L202.667 501.333L202.333 500.667z"/>
<path style="fill:#97674e; stroke:none;" d="M378 501L378 510L379 510L378 501z"/>
<path style="fill:#dad2ce; stroke:none;" d="M379 501L379 504L380 504L379 501z"/>
<path style="fill:#434343; stroke:none;" d="M173.333 502.667L173.667 503.333L173.333 502.667z"/>
<path style="fill:#c28f77; stroke:none;" d="M237 502L236 505L237 502z"/>
<path style="fill:#97674e; stroke:none;" d="M201.333 503.667L201.667 504.333L201.333 503.667z"/>
<path style="fill:#afadba; stroke:none;" d="M316 503L314 506L314 507L330 507C326.918 502.933 320.759 503.039 316 503z"/>
<path style="fill:#928f90; stroke:none;" d="M173 504L173 507L174 507L173 504z"/>
<path style="fill:#afadba; stroke:none;" d="M313.667 504.333L314.333 504.667L313.667 504.333z"/>
<path style="fill:#dad2ce; stroke:none;" d="M311 506L311 507L317 505L311 506z"/>
<path style="fill:#afadba; stroke:none;" d="M379 504L379 510L380 510L379 504z"/>
<path style="fill:#7e4d38; stroke:none;" d="M200.333 505.667L200.667 506.333L200.333 505.667z"/>
<path style="fill:#928f90; stroke:none;" d="M311 508L311 509L324 507L311 508z"/>
<path style="fill:#97674e; stroke:none;" d="M350.667 506.333L351.333 506.667L350.667 506.333z"/>
<path style="fill:#7e4d38; stroke:none;" d="M352 506L352 507L357 507L352 506z"/>
<path style="fill:#747070; stroke:none;" d="M357.667 506.333L358.333 506.667L357.667 506.333z"/>
<path style="fill:#ab7961; stroke:none;" d="M359.667 506.333L360.333 506.667L359.667 506.333z"/>
<path style="fill:#c28f77; stroke:none;" d="M235.333 507.667L235.667 508.333L235.333 507.667z"/>
<path style="fill:#afadba; stroke:none;" d="M311.667 507.333L312.333 507.667L311.667 507.333z"/>
<path style="fill:#a8856e; stroke:none;" d="M318 507L318 508L323 508L318 507z"/>
<path style="fill:#747070; stroke:none;" d="M323 507L323 508L326 508L323 507z"/>
<path style="fill:#928f90; stroke:none;" d="M326 507L326 508L330 508L326 507z"/>
<path style="fill:#516064; stroke:none;" d="M348.667 507.333L349.333 507.667L348.667 507.333z"/>
<path style="fill:#434343; stroke:none;" d="M350 507L350 509L342 512L347 510L355 511L355 510L351 510L351 509L357 511L362 510L375 521C371.63 506.982 361.313 508.867 350 507z"/>
<path style="fill:#3c3634; stroke:none;" d="M352 507L352 508L357 508L352 507z"/>
<path style="fill:#747070; stroke:none;" d="M361 507L361 508L364 508L361 507z"/>
<path style="fill:#434343; stroke:none;" d="M174 508L174 511L175 511L174 508z"/>
<path style="fill:#7e4d38; stroke:none;" d="M199.333 508.667L199.667 509.333L199.333 508.667z"/>
<path style="fill:#a8856e; stroke:none;" d="M264 508L264 509L269 509L264 508z"/>
<path style="fill:#3c3634; stroke:none;" d="M348.667 508.333L349.333 508.667L348.667 508.333z"/>
<path style="fill:#a8856e; stroke:none;" d="M365.667 508.333L366.333 508.667L365.667 508.333z"/>
<path style="fill:#ab7961; stroke:none;" d="M258.667 509.333L259.333 509.667L258.667 509.333z"/>
<path style="fill:#7e4d38; stroke:none;" d="M260 509L260 510L263 510L260 509z"/>
<path style="fill:#434343; stroke:none;" d="M263 509L263 510L272 510L263 509z"/>
<path style="fill:#97674e; stroke:none;" d="M272.667 509.333L273.333 509.667L272.667 509.333z"/>
<path style="fill:#a8856e; stroke:none;" d="M274.667 509.333L275.333 509.667L274.667 509.333M320 509L320 510L325 512L325 513L320 512L320 513L325 515L325 516L321 515L321 516L325 534L326 534C325.347 528.502 322.636 515.176 327 511L327 510L320 509z"/>
<path style="fill:#3c3634; stroke:none;" d="M351 509L351 510L357 510L351 509z"/>
<path style="fill:#97674e; stroke:none;" d="M255.667 510.333L256.333 510.667L255.667 510.333z"/>
<path style="fill:#3c3634; stroke:none;" d="M257.667 510.333L258.333 510.667L257.667 510.333z"/>
<path style="fill:#1e1d1d; stroke:none;" d="M253 512L253 513L274 514L274 513L260 512L260 511L273 511C266.77 508.386 259.289 510.562 253 512z"/>
<path style="fill:#3c3634; stroke:none;" d="M260 511L260 512L274 513L273 515L291 529C289.417 511.003 273.897 511 260 511z"/>
<path style="fill:#97674e; stroke:none;" d="M275.667 510.333L276.333 510.667L275.667 510.333z"/>
<path style="fill:#ab7961; stroke:none;" d="M327 510L325 531L326 531L327 510z"/>
<path style="fill:#3c3634; stroke:none;" d="M347.667 510.333L348.333 510.667L347.667 510.333z"/>
<path style="fill:#516064; stroke:none;" d="M347 511L347 512C353.103 512.459 357.951 516.231 360 522L361 522L357 510L347 511z"/>
<path style="fill:#3c3634; stroke:none;" d="M359 510L359 511L362 511L359 510z"/>
<path style="fill:#ab7961; stroke:none;" d="M378 510L378 522L380 522L378 510z"/>
<path style="fill:#a8856e; stroke:none;" d="M379 510L379 517L380 517L379 510z"/>
<path style="fill:#928f90; stroke:none;" d="M174.333 511.667L174.667 512.333L174.333 511.667z"/>
<path style="fill:#97674e; stroke:none;" d="M198.333 511.667L198.667 512.333L198.333 511.667z"/>
<path style="fill:#7e4d38; stroke:none;" d="M252.667 511.333L253.333 511.667L252.667 511.333z"/>
<path style="fill:#3c3634; stroke:none;" d="M254.667 511.333L255.333 511.667L254.667 511.333z"/>
<path style="fill:#ab7961; stroke:none;" d="M278.667 511.333L279.333 511.667L278.667 511.333z"/>
<path style="fill:#a8856e; stroke:none;" d="M280 512C286.162 518.666 291.727 523.597 293 533C305.453 524.468 291.04 510.239 280 512z"/>
<path style="fill:#ddad97; stroke:none;" d="M304 529L305 529L309 517L310 517C309.199 524.823 301.461 540.665 292 535C286.779 540.221 277.208 544 268 544C263.151 544 255.227 545.094 256 542L252 543L252 544C265.282 547.459 272.908 560.504 287 549.764C289.787 547.639 292.424 545.371 295 543L291 548L291 549C301.351 557.918 290.73 571.421 299.819 580.397C303.331 583.865 315.105 583.381 320 584L320 592L315 592L315 593C319.15 592.985 322.544 593.387 324 589L334 591C333.939 588.481 334.231 584.954 331.566 583.603C324.331 579.936 313.917 581.963 306.054 577.701C293.163 570.714 300.256 555.994 311 552C309.85 556.385 306.167 560.119 307.667 564.945C311.448 577.106 340.78 567.211 332.394 557.915C330.862 556.217 328.385 555.084 326.424 553.959C324.04 552.59 321.626 551.773 319 551C326 541.251 321.456 530.522 320 519L311 517L311 511C304.463 514.486 304.018 522.296 304 529z"/>
<path style="fill:#dad2ce; stroke:none;" d="M356 511C363.085 521.859 364.196 530.392 353 539C361.835 541.017 376.027 530.941 372.396 521.001C369.995 514.428 362.249 511.923 356 511z"/>
<path style="fill:#747070; stroke:none;" d="M359.667 511.333L360.333 511.667L359.667 511.333z"/>
<path style="fill:#434343; stroke:none;" d="M246 514L246 515L252 513L246 514z"/>
<path style="fill:#3c3634; stroke:none;" d="M252 512L250 515L253 516L252 514L253 514L255 515L256 515L256 514L252 512M256.667 512.333L257.333 512.667L256.667 512.333z"/>
<path style="fill:#a8856e; stroke:none;" d="M329 512C329.093 516.373 329.301 521.222 333 524L329 512z"/>
<path style="fill:#3c3634; stroke:none;" d="M340 515L343 512L340 515z"/>
<path style="fill:#97674e; stroke:none;" d="M345.667 512.333L346.333 512.667L345.667 512.333z"/>
<path style="fill:#747070; stroke:none;" d="M347 512L347 513C356.467 514.91 356.056 523.025 362 528L362 521L347 512z"/>
<path style="fill:#928f90; stroke:none;" d="M362.667 512.333L363.333 512.667L362.667 512.333z"/>
<path style="fill:#afadba; stroke:none;" d="M174.333 513.667L174.667 514.333L174.333 513.667z"/>
<path style="fill:#1e1d1d; stroke:none;" d="M250.667 513.333L251.333 513.667L250.667 513.333z"/>
<path style="fill:#3c3634; stroke:none;" d="M258 513L258 514L263 514L258 513z"/>
<path style="fill:#434343; stroke:none;" d="M263 513L263 514L267 514L263 513z"/>
<path style="fill:#3c3634; stroke:none;" d="M267 513L267 514L272 514L267 513z"/>
<path style="fill:#97674e; stroke:none;" d="M343 513L342 516L343 513z"/>
<path style="fill:#ab7961; stroke:none;" d="M344 513L344 514L351 515L344 513z"/>
<path style="fill:#516064; stroke:none;" d="M365.667 513.333L366.333 513.667L365.667 513.333z"/>
<path style="fill:#3c3634; stroke:none;" d="M175 514L175 517L176 517L175 514z"/>
<path style="fill:#97674e; stroke:none;" d="M197.333 514.667L197.667 515.333L197.333 514.667z"/>
<path style="fill:#1e1d1d; stroke:none;" d="M248 514L251 516L248 514M252.667 514.333L253.333 514.667L252.667 514.333z"/>
<path style="fill:#434343; stroke:none;" d="M256.667 514.333L257.333 514.667L256.667 514.333z"/>
<path style="fill:#516064; stroke:none;" d="M258.667 514.333L259.333 514.667L258.667 514.333z"/>
<path style="fill:#747070; stroke:none;" d="M260 514L260 515L264 515L260 514z"/>
<path style="fill:#516064; stroke:none;" d="M264 514L264 515L276 519C272.558 514.623 269.387 514.018 264 514z"/>
<path style="fill:#747070; stroke:none;" d="M272.333 514.667L272.667 515.333L272.333 514.667z"/>
<path style="fill:#434343; stroke:none;" d="M339 514L338 516L340 516L339 514z"/>
<path style="fill:#7e4d38; stroke:none;" d="M344 514L344 515L349 515L344 514z"/>
<path style="fill:#a8856e; stroke:none;" d="M351 514L357 524L358 524C357.62 518.958 355.563 516.153 351 514z"/>
<path style="fill:#97674e; stroke:none;" d="M181 515L179 521L181 518L185 518L181 515z"/>
<path style="fill:#3c3634; stroke:none;" d="M245 515L245 516L250 517L245 515z"/>
<path style="fill:#434343; stroke:none;" d="M253.667 515.333L254.333 515.667L253.667 515.333z"/>
<path style="fill:#516064; stroke:none;" d="M255.667 515.333L256.333 515.667L255.667 515.333z"/>
<path style="fill:#747070; stroke:none;" d="M257.667 515.333L258.333 515.667L257.667 515.333z"/>
<path style="fill:#97674e; stroke:none;" d="M259 515L259 516L265 516L259 515z"/>
<path style="fill:#747070; stroke:none;" d="M265 515L265 516C271.63 519.442 274.768 524.758 276 532L277 532C276.823 523.695 273.812 516.772 265 515z"/>
<path style="fill:#afadba; stroke:none;" d="M273.667 515.333L274.333 515.667L273.667 515.333z"/>
<path style="fill:#ddad97; stroke:none;" d="M340.667 515.333L341.333 515.667L340.667 515.333z"/>
<path style="fill:#434343; stroke:none;" d="M343 515L344 522L343 523L339 524L338 521L337 521L339 524C334.209 531.492 344.646 535.909 350.895 533.258C356.442 530.904 357.716 521.583 353.566 517.434C350.785 514.652 346.613 515.01 343 515z"/>
<path style="fill:#7e4d38; stroke:none;" d="M196.333 516.667L196.667 517.333L196.333 516.667z"/>
<path style="fill:#1e1d1d; stroke:none;" d="M243 519L248 518C245.575 516.519 244.595 516.652 243 519z"/>
<path style="fill:#434343; stroke:none;" d="M250 516L246 531L247 531L252 516L250 516z"/>
<path style="fill:#516064; stroke:none;" d="M252 516L246 533L254 541C247.575 528.79 250.47 527.732 254 516L252 516z"/>
<path style="fill:#747070; stroke:none;" d="M254 516L254 518L256 516L254 516z"/>
<path style="fill:#97674e; stroke:none;" d="M255 517L259 518L255 517z"/>
<path style="fill:#ab7961; stroke:none;" d="M258 516L258 517C263.958 517.054 267.227 518.307 271 523C272.448 515.875 262.756 516.003 258 516z"/>
<path style="fill:#dad2ce; stroke:none;" d="M274 516C280.108 527.139 279.67 534.797 269 543C275.093 545.377 288.155 541.005 289.664 533.996C291.411 525.877 280.917 517.391 274 516z"/>
<path style="fill:#97674e; stroke:none;" d="M332.333 516.667L332.667 517.333L332.333 516.667M333 520L337 516L333 520z"/>
<path style="fill:#3c3634; stroke:none;" d="M336 519L339 516L336 519z"/>
<path style="fill:#dad2ce; stroke:none;" d="M343 516C333.685 517.489 342.243 525.73 343 516z"/>
<path style="fill:#516064; stroke:none;" d="M369 516L373 520L369 516z"/>
<path style="fill:#a8856e; stroke:none;" d="M175.333 517.667L175.667 518.333L175.333 517.667z"/>
<path style="fill:#516064; stroke:none;" d="M248.667 517.333L249.333 517.667L248.667 517.333z"/>
<path style="fill:#7e4d38; stroke:none;" d="M259.667 517.333L260.333 517.667L259.667 517.333z"/>
<path style="fill:#434343; stroke:none;" d="M261 517L261 518L264 518L261 517z"/>
<path style="fill:#97674e; stroke:none;" d="M264 517L264 518L268 519L268 518L264 517z"/>
<path style="fill:#e9beae; stroke:none;" d="M309 517L304 531L305 531C307.438 526.823 310.881 521.871 309 517z"/>
<path style="fill:#97674e; stroke:none;" d="M328 517C326.371 522.138 323.309 531.647 330 534C330.854 527.651 332.674 522.304 328 517z"/>
<path style="fill:#928f90; stroke:none;" d="M343 517L343 520L344 520L343 517z"/>
<path style="fill:#3c3634; stroke:none;" d="M344 517L344 520L345 520L344 517z"/>
<path style="fill:#516064; stroke:none;" d="M374.333 517.667L374.667 518.333L374.333 517.667z"/>
<path style="fill:#ddad97; stroke:none;" d="M169 519C172.841 525.355 179.687 533.93 187 536L186 524L183 525L183 527L186 532C182.745 529.346 179.707 526.384 181 522C176.99 518.944 173.97 517.923 169 519z"/>
<path style="fill:#e9beae; stroke:none;" d="M234 518L234 521L235 521L234 518z"/>
<path style="fill:#3c3634; stroke:none;" d="M240 524L246 519C241.863 518.228 240.601 520.039 240 524z"/>
<path style="fill:#928f90; stroke:none;" d="M247.667 518.333L248.333 518.667L247.667 518.333z"/>
<path style="fill:#dad2ce; stroke:none;" d="M254.303 519.175C250.963 520.817 253.247 525.742 256.697 524.338C260.115 522.947 257.569 517.57 254.303 519.175z"/>
<path style="fill:#3c3634; stroke:none;" d="M258 518L257 527L252 525C252.009 527.626 251.788 530.486 252.858 532.956C260.223 549.963 283.997 524.626 265.96 518.653C263.431 517.815 260.624 518.008 258 518z"/>
<path style="fill:#c28f77; stroke:none;" d="M171.667 519.333L172.333 519.667L171.667 519.333z"/>
<path style="fill:#3c3634; stroke:none;" d="M178.667 519.333L179.333 519.667L178.667 519.333z"/>
<path style="fill:#7e4d38; stroke:none;" d="M195.333 519.667L195.667 520.333L195.333 519.667z"/>
<path style="fill:#dad2ce; stroke:none;" d="M249 539C245.602 531.347 244.805 526.844 248 519C234.939 523.453 237.744 534.646 249 539z"/>
<path style="fill:#434343; stroke:none;" d="M275 519L276 523L277 523L275 519z"/>
<path style="fill:#a8856e; stroke:none;" d="M281 519L282 520L281 519z"/>
<path style="fill:#434343; stroke:none;" d="M334 522L337 519L334 522z"/>
<path style="fill:#928f90; stroke:none;" d="M361.333 519.667L361.667 520.333L361.333 519.667z"/>
<path style="fill:#747070; stroke:none;" d="M375.333 519.667L375.667 520.333L375.333 519.667z"/>
<path style="fill:#dad2ce; stroke:none;" d="M380 519L380 522L381 522L380 519z"/>
<path style="fill:#c28f77; stroke:none;" d="M164 528L165 528C172.922 521.651 183.291 537.842 187 543L188 543L187 524L186 524L187 536C181.45 533.39 172.652 526.057 171 520C166.64 521.261 165.125 523.705 164 528z"/>
<path style="fill:#a8856e; stroke:none;" d="M251 520L251 523L252 523L251 520z"/>
<path style="fill:#928f90; stroke:none;" d="M282 520L283 521L282 520z"/>
<path style="fill:#97674e; stroke:none;" d="M336 520L335 521L336 527L337 527L338 520L336 520z"/>
<path style="fill:#c28f77; stroke:none;" d="M182 521L183 525L186 524L186 522L182 521z"/>
<path style="fill:#e9beae; stroke:none;" d="M235 521L236 526L237 526L235 521z"/>
<path style="fill:#434343; stroke:none;" d="M239 521L240 526L239 521z"/>
<path style="fill:#747070; stroke:none;" d="M250 521C246.676 529.878 251.635 533.736 253 542L258 542L249.998 530L250 521z"/>
<path style="fill:#a8856e; stroke:none;" d="M272 521L273 532L274 532L272 521z"/>
<path style="fill:#516064; stroke:none;" d="M275.333 521.667L275.667 522.333L275.333 521.667z"/>
<path style="fill:#747070; stroke:none;" d="M277.333 521.667L277.667 522.333L277.333 521.667z"/>
<path style="fill:#3c3634; stroke:none;" d="M342 521L342 523L344 521L342 521z"/>
<path style="fill:#928f90; stroke:none;" d="M358 521C357.832 524.985 358.421 531.646 355.643 534.757C348.417 542.847 336.676 531.687 334 525L333 525C334.156 531.407 337.808 538.226 345 538L345 539L343 539L343 540C352.321 538.294 366.807 533.894 358 521z"/>
<path style="fill:#516064; stroke:none;" d="M373 521L376 523L373 521z"/>
<path style="fill:#a8856e; stroke:none;" d="M182.333 522.667L182.667 523.333L182.333 522.667z"/>
<path style="fill:#516064; stroke:none;" d="M246.333 522.667L246.667 523.333L246.333 522.667M333.667 522.333L334.333 522.667L333.667 522.333z"/>
<path style="fill:#ab7961; stroke:none;" d="M335 522L335 526L336 526L335 522z"/>
<path style="fill:#516064; stroke:none;" d="M339.667 522.333L340.333 522.667L339.667 522.333z"/>
<path style="fill:#97674e; stroke:none;" d="M356 522L356 526L357 526L356 522z"/>
<path style="fill:#afadba; stroke:none;" d="M373 522L373 526L374 526L373 522z"/>
<path style="fill:#97674e; stroke:none;" d="M379 522L379 539L380 539L379 522z"/>
<path style="fill:#afadba; stroke:none;" d="M380 522L380 530L381 530L380 522z"/>
<path style="fill:#e9beae; stroke:none;" d="M179 523L186 532C185.328 527.683 183.245 524.345 179 523z"/>
<path style="fill:#1e1d1d; stroke:none;" d="M239.333 523.667L239.667 524.333L239.333 523.667z"/>
<path style="fill:#ab7961; stroke:none;" d="M250 523C250.003 527.922 249.372 533.169 254 536L252 523L250 523z"/>
<path style="fill:#516064; stroke:none;" d="M276 523L276 526L277 526L278 523L276 523z"/>
<path style="fill:#434343; stroke:none;" d="M290.333 523.667L290.667 524.333L290.333 523.667z"/>
<path style="fill:#747070; stroke:none;" d="M333 523L331 528L332 528L334 527L335 527L335 523L333 523z"/>
<path style="fill:#3c3634; stroke:none;" d="M339.667 523.333L340.333 523.667L339.667 523.333z"/>
<path style="fill:#516064; stroke:none;" d="M361 523L361 526L362 526L361 523z"/>
<path style="fill:#747070; stroke:none;" d="M374.667 523.333L375.333 523.667L374.667 523.333z"/>
<path style="fill:#c28f77; stroke:none;" d="M376 523L370 533C374.482 533 368.899 545.894 368 549L378 542L375 543L376 523z"/>
<path style="fill:#97674e; stroke:none;" d="M190.667 524.333L191.333 524.667L190.667 524.333z"/>
<path style="fill:#928f90; stroke:none;" d="M237.333 524.667L237.667 525.333L237.333 524.667z"/>
<path style="fill:#afadba; stroke:none;" d="M245.333 524.667L245.667 525.333L245.333 524.667z"/>
<path style="fill:#7e4d38; stroke:none;" d="M251 524L251 530L252 530L253 524L251 524z"/>
<path style="fill:#97674e; stroke:none;" d="M272.333 524.667L272.667 525.333L272.333 524.667z"/>
<path style="fill:#434343; stroke:none;" d="M277 524L277 527L278 527L277 524z"/>
<path style="fill:#afadba; stroke:none;" d="M278.333 524.667L278.667 525.333L278.333 524.667z"/>
<path style="fill:#e9beae; stroke:none;" d="M303 545C306.941 545 314.325 546.226 316.971 542.486C319.448 538.986 316.927 525.628 312.046 524.921C307.048 524.197 303.406 541.233 303 545z"/>
<path style="fill:#3c3634; stroke:none;" d="M337.667 524.333L338.333 524.667L337.667 524.333z"/>
<path style="fill:#c28f77; stroke:none;" d="M357 524L357 527L358 527L357 524z"/>
<path style="fill:#a8856e; stroke:none;" d="M187 525L187 528L188 528L187 525z"/>
<path style="fill:#928f90; stroke:none;" d="M254 525L254 526L257 526L254 525z"/>
<path style="fill:#97674e; stroke:none;" d="M291.333 525.667L291.667 526.333L291.333 525.667z"/>
<path style="fill:#a8856e; stroke:none;" d="M165 526C165.204 532.231 168.117 534.512 174 536L174 535C169.747 532.958 163.732 529.684 171 527L171 526L165 526z"/>
<path style="fill:#747070; stroke:none;" d="M237 526L237 529L238 529L239 526L237 526z"/>
<path style="fill:#928f90; stroke:none;" d="M245 526L245 530L246 530L245 526z"/>
<path style="fill:#97674e; stroke:none;" d="M249 526L249 530L250 530L249 526z"/>
<path style="fill:#1e1d1d; stroke:none;" d="M254 526L254 527L257 527L254 526z"/>
<path style="fill:#7e4d38; stroke:none;" d="M272 526L272 530L273 530L272 526z"/>
<path style="fill:#928f90; stroke:none;" d="M278 526L278 530L279 530L278 526z"/>
<path style="fill:#434343; stroke:none;" d="M332 526C332.518 531.707 334.741 535.52 340 538L332 526z"/>
<path style="fill:#a8856e; stroke:none;" d="M335 526C335.831 531.127 338.293 533.879 343 536L335 526M356 526L355 530L356 530L356 526z"/>
<path style="fill:#ddad97; stroke:none;" d="M374.333 526.667L374.667 527.333L374.333 526.667z"/>
<path style="fill:#e9beae; stroke:none;" d="M235 527C236.966 542.107 248.081 558.15 255.795 571C259.37 576.956 261.385 584.01 268.004 587.393C275.917 591.437 285.573 590.812 294 592.634C297.752 593.446 301.149 596.704 305 596.628C310.079 596.528 314.688 592.467 320 592L320 584C314.76 583.024 303.373 583.847 299.819 579.682C291.673 570.135 302.546 556.061 291 549L291 548L295 543C289.938 546.348 284.988 552.312 279 553.871C268.591 556.581 261.259 545.477 252 544L252 543L254 542L235 527z"/>
<path style="fill:#a8856e; stroke:none;" d="M236.333 527.667L236.667 528.333L236.333 527.667z"/>
<path style="fill:#516064; stroke:none;" d="M277 527L276 535L277 535L277 527z"/>
<path style="fill:#434343; stroke:none;" d="M291 527L291 532L292 532L291 527z"/>
<path style="fill:#afadba; stroke:none;" d="M163.333 528.667L163.667 529.333L163.333 528.667z"/>
<path style="fill:#ab7961; stroke:none;" d="M164 528L164 533L165 533L164 528z"/>
<path style="fill:#97674e; stroke:none;" d="M169 529L169 531L184 543L180 534L172 530L175 530L169 529z"/>
<path style="fill:#a8856e; stroke:none;" d="M188.333 528.667L188.667 529.333L188.333 528.667z"/>
<path style="fill:#928f90; stroke:none;" d="M274 528L272 532L274 537L276 528L274 528z"/>
<path style="fill:#dad2ce; stroke:none;" d="M331 528C329.859 533.534 332.037 535.791 337 538L331 528z"/>
<path style="fill:#97674e; stroke:none;" d="M337.333 528.667L337.667 529.333L337.333 528.667z"/>
<path style="fill:#c28f77; stroke:none;" d="M356.333 528.667L356.667 529.333L356.333 528.667z"/>
<path style="fill:#516064; stroke:none;" d="M360.333 528.667L360.667 529.333L360.333 528.667z"/>
<path style="fill:#afadba; stroke:none;" d="M361.333 528.667L361.667 529.333L361.333 528.667z"/>
<path style="fill:#a8856e; stroke:none;" d="M175 529L178 531L175 529z"/>
<path style="fill:#afadba; stroke:none;" d="M236.667 529.333L237.333 529.667L236.667 529.333z"/>
<path style="fill:#ab7961; stroke:none;" d="M292 529L292 533L293 533L292 529z"/>
<path style="fill:#c28f77; stroke:none;" d="M163.333 530.667L163.667 531.333L163.333 530.667z"/>
<path style="fill:#7e4d38; stroke:none;" d="M172 530L180 536C178.727 531.714 176.335 530.484 172 530z"/>
<path style="fill:#97674e; stroke:none;" d="M251.333 530.667L251.667 531.333L251.333 530.667z"/>
<path style="fill:#ab7961; stroke:none;" d="M272.333 530.667L272.667 531.333L272.333 530.667z"/>
<path style="fill:#afadba; stroke:none;" d="M278.333 530.667L278.667 531.333L278.333 530.667M347 536L353 538L353 534L356 536L358 530L347 536z"/>
<path style="fill:#747070; stroke:none;" d="M359 530L359 533L361 530L359 530z"/>
<path style="fill:#ddad97; stroke:none;" d="M372.333 530.667L372.667 531.333L372.333 530.667z"/>
<path style="fill:#c28f77; stroke:none;" d="M380 530L380 534L381 534L380 530z"/>
<path style="fill:#afadba; stroke:none;" d="M290 531L290 535L291 535L290 531z"/>
<path style="fill:#a8856e; stroke:none;" d="M163 532L163 538L164 538L163 532z"/>
<path style="fill:#c28f77; stroke:none;" d="M165 532L164 543L165 543L165 538C176.3 539.482 175.381 553.508 180.439 561.522C183.707 566.698 188.73 569.666 190 576L174 569C176.364 573.543 189.206 584.428 191.664 573.941C192.65 569.73 189.6 564.81 188.152 561C182.941 547.291 178.52 538.108 165 532z"/>
<path style="fill:#a8856e; stroke:none;" d="M189 532L187 544C192.029 542.226 190.78 536.126 189 532z"/>
<path style="fill:#97674e; stroke:none;" d="M291 532L291 535L292 535L291 532z"/>
<path style="fill:#ab7961; stroke:none;" d="M326 532C326.656 535.585 327.447 537.783 331 539L331 534L326 532z"/>
<path style="fill:#ddad97; stroke:none;" d="M345 542L344 542L343 539L335 537C337.332 546.418 346.102 571.191 356 573L374 546L368 549L372 532L356 539.1L345 542z"/>
<path style="fill:#afadba; stroke:none;" d="M246.333 533.667L246.667 534.333L246.333 533.667z"/>
<path style="fill:#434343; stroke:none;" d="M247 533L252 540L247 533z"/>
<path style="fill:#c28f77; stroke:none;" d="M270 536L273 533L270 536z"/>
<path style="fill:#516064; stroke:none;" d="M343 534L343 535L349 535L343 534z"/>
<path style="fill:#928f90; stroke:none;" d="M349.667 534.333L350.333 534.667L349.667 534.333z"/>
<path style="fill:#dad2ce; stroke:none;" d="M353 534L353 537L355 537L355 534L353 534z"/>
<path style="fill:#afadba; stroke:none;" d="M265 542C269.464 541.503 271.995 540.064 274 536L273 535C268.786 536.104 266.193 537.668 265 542z"/>
<path style="fill:#747070; stroke:none;" d="M275 535L265 543L265 544C270.741 543.233 274.354 540.058 277 535L275 535z"/>
<path style="fill:#a8856e; stroke:none;" d="M326.333 535.667L326.667 536.333L326.333 535.667z"/>
<path style="fill:#c28f77; stroke:none;" d="M343 535L343 536L348 536L343 535z"/>
<path style="fill:#a8856e; stroke:none;" d="M252 536L263 540L252 536M331 537L328 539L328 540C330.348 539.706 331.951 539.507 331 537z"/>
<path style="fill:#ddad97; stroke:none;" d="M165 538C165.316 553.299 171.804 575.799 190 576C189.261 569.383 184.38 566.696 180.959 561.522C175.659 553.506 176.676 538.786 165 538z"/>
<path style="fill:#747070; stroke:none;" d="M258.667 538.333L259.333 538.667L258.667 538.333z"/>
<path style="fill:#516064; stroke:none;" d="M260 538L260 539L264 539L260 538z"/>
<path style="fill:#a8856e; stroke:none;" d="M264.667 538.333L265.333 538.667L264.667 538.333z"/>
<path style="fill:#dad2ce; stroke:none;" d="M269 538L269 540L271 540L271 538L269 538z"/>
<path style="fill:#747070; stroke:none;" d="M339.667 538.333L340.333 538.667L339.667 538.333M342 538L342 539L345 539L342 538z"/>
<path style="fill:#ab7961; stroke:none;" d="M378.333 538.667L378.667 539.333L378.333 538.667z"/>
<path style="fill:#a8856e; stroke:none;" d="M178 539L180 544L181 544L178 539z"/>
<path style="fill:#c28f77; stroke:none;" d="M263.667 539.333L264.333 539.667L263.667 539.333z"/>
<path style="fill:#e9beae; stroke:none;" d="M297 539L297 541L299 539L297 539z"/>
<path style="fill:#747070; stroke:none;" d="M345 539L345 540L352 540L345 539z"/>
<path style="fill:#928f90; stroke:none;" d="M257 540L256 542L256 543L267 543L266 540L257 540z"/>
<path style="fill:#e9beae; stroke:none;" d="M342 540L342 541L345 542L342 540z"/>
<path style="fill:#ab7961; stroke:none;" d="M379 540L380 551L381 551L379 540z"/>
<path style="fill:#97674e; stroke:none;" d="M379 541C375.334 547.869 377.587 556.446 376.41 564C373.135 585.02 367.575 604.876 352.307 620.376C348.987 623.747 347.323 627.791 343 630C336.862 654.709 311.825 664.431 290 655.546C261.966 644.134 235.103 612.71 220.789 587C215.763 577.971 210.815 570.773 204.263 562.91C201.545 559.648 201.23 555.472 197 554L198 575L190 577L190 578C206.245 579.473 217.518 599.396 226.522 610.961C241.02 629.583 262.324 649.851 285 658L283 659L283 660L288 659L288 660L286 660L286 661L290 662L321 663C321 659.46 328.733 656.914 332 657L332 654L334 651L337 653L341 644L344 646L345 645L343 643L343 642C352.472 634.357 362.627 620.046 367.691 609C370.579 602.702 371.431 594.184 376 589C375.461 585.768 374.102 584.275 377 585L378 579L379 541z"/>
<path style="fill:#afadba; stroke:none;" d="M163.333 542.667L163.667 543.333L163.333 542.667z"/>
<path style="fill:#747070; stroke:none;" d="M259.667 542.333L260.333 542.667L259.667 542.333z"/>
<path style="fill:#e9beae; stroke:none;" d="M345 542C348.547 548.13 356.097 552.769 363 554L363 553L345 542z"/>
<path style="fill:#a8856e; stroke:none;" d="M164 543L164 546L165 546L164 543z"/>
<path style="fill:#e9beae; stroke:none;" d="M255 543L255 544L258 544L255 543z"/>
<path style="fill:#c28f77; stroke:none;" d="M259 543L259 544L262 544L259 543M165 544L164 547L165 544z"/>
<path style="fill:#e9beae; stroke:none;" d="M260 544L260 545L263 545L260 544z"/>
<path style="fill:#a8856e; stroke:none;" d="M181 545L181 548L183 548L183 545L181 545M374 546L369.321 576L363 597L364 597C369.905 585.445 379.185 558.713 374 546z"/>
<path style="fill:#afadba; stroke:none;" d="M164.333 547.667L164.667 548.333L164.333 547.667z"/>
<path style="fill:#ab7961; stroke:none;" d="M165 547L165 550L166 550L165 547z"/>
<path style="fill:#a8856e; stroke:none;" d="M183 548L187 557L183 548z"/>
<path style="fill:#c28f77; stroke:none;" d="M166 549L165 551L167 551L166 549z"/>
<path style="fill:#a8856e; stroke:none;" d="M330 550L332 552L332 550L330 550M166 551L166 554L167 554L166 551z"/>
<path style="fill:#ab7961; stroke:none;" d="M332 551C336.814 561.513 345.784 571.298 330 578L330 579C346.672 578.223 341.797 557.964 332 551z"/>
<path style="fill:#a8856e; stroke:none;" d="M380.333 551.667L380.667 552.333L380.333 551.667z"/>
<path style="fill:#c28f77; stroke:none;" d="M167.333 552.667L167.667 553.333L167.333 552.667M380 553L380 556L381 556L380 553z"/>
<path style="fill:#afadba; stroke:none;" d="M166.333 554.667L166.667 555.333L166.333 554.667z"/>
<path style="fill:#ab7961; stroke:none;" d="M167.333 554.667L167.667 555.333L167.333 554.667z"/>
<path style="fill:#7e4d38; stroke:none;" d="M379 554L379 560L380 560L379 554z"/>
<path style="fill:#c28f77; stroke:none;" d="M167.667 556.333L168.333 556.667L167.667 556.333z"/>
<path style="fill:#afadba; stroke:none;" d="M380 556L380 562L381 562L380 556z"/>
<path style="fill:#a8856e; stroke:none;" d="M168.333 557.667L168.667 558.333L168.333 557.667M187.333 557.667L187.667 558.333L187.333 557.667z"/>
<path style="fill:#c28f77; stroke:none;" d="M169 558L171 562L169 558z"/>
<path style="fill:#e9beae; stroke:none;" d="M327 563L327 560C323.885 558.689 310.723 556.75 311.921 563.726C312.861 569.2 324.487 564.173 327 563z"/>
<path style="fill:#a8856e; stroke:none;" d="M188.333 561.667L188.667 562.333L188.333 561.667M170 562L173 567L170 562M189.333 563.667L189.667 564.333L189.333 563.667M301 565L304 566C305.093 563.114 302.499 562.924 301 565z"/>
<path style="fill:#97674e; stroke:none;" d="M339 563L339 570L340 570L339 563z"/>
<path style="fill:#ab7961; stroke:none;" d="M302 564L302 572L303 572L303 569L310 572L310 571L304 564L302 564M338 564C332.019 573.439 320.81 572 311 572L311 573C317.054 573.26 340.996 575.399 338 564z"/>
<path style="fill:#7e4d38; stroke:none;" d="M378 564L378 570L379 570L378 564z"/>
<path style="fill:#a8856e; stroke:none;" d="M379 564L379 567L380 567L379 564M190 565L192 576C193.981 571.877 195.112 566.698 190 565z"/>
<path style="fill:#ab7961; stroke:none;" d="M172 567L173 571L174 571L172 567z"/>
<path style="fill:#afadba; stroke:none;" d="M379 567L379 570L380 570L379 567z"/>
<path style="fill:#97674e; stroke:none;" d="M303 569C303.695 574.153 306.084 576.508 311 578L311 577L308 574C315.077 575.314 329.904 577.302 335 571C321.952 572.918 315.58 572.157 303 569z"/>
<path style="fill:#a8856e; stroke:none;" d="M331 569L331 570L334 570L331 569z"/>
<path style="fill:#7e4d38; stroke:none;" d="M308 574C313.657 583.784 336.735 579.987 339 569C328.076 574.154 320.219 575.544 308 574z"/>
<path style="fill:#97674e; stroke:none;" d="M174 570C175.494 575.32 183.725 584.029 189 578C182.127 578.568 178.724 574.35 174 570z"/>
<path style="fill:#a8856e; stroke:none;" d="M308.667 570.333L309.333 570.667L308.667 570.333M310.667 571.333L311.333 571.667L310.667 571.333M326 571L326 572L329 572L326 571z"/>
<path style="fill:#ab7961; stroke:none;" d="M378 571L378 574L379 574L378 571z"/>
<path style="fill:#a8856e; stroke:none;" d="M340.333 572.667L340.667 573.333L340.333 572.667z"/>
<path style="fill:#7e4d38; stroke:none;" d="M377 572L377 577L378 577L377 572z"/>
<path style="fill:#a8856e; stroke:none;" d="M304.333 574.667L304.667 575.333L304.333 574.667z"/>
<path style="fill:#afadba; stroke:none;" d="M378.333 574.667L378.667 575.333L378.333 574.667z"/>
<path style="fill:#a8856e; stroke:none;" d="M338 575L338 577L340 575L338 575z"/>
<path style="fill:#ab7961; stroke:none;" d="M305.667 576.333L306.333 576.667L305.667 576.333z"/>
<path style="fill:#a8856e; stroke:none;" d="M306 577L306 578L309 578L306 577z"/>
<path style="fill:#97674e; stroke:none;" d="M331.667 577.333L332.333 577.667L331.667 577.333z"/>
<path style="fill:#a8856e; stroke:none;" d="M184 578L184 579L187 579L184 578z"/>
<path style="fill:#7e4d38; stroke:none;" d="M189 578L189 579C201.732 580.702 212.297 600.622 219.8 610C235.827 630.033 258.24 654.23 285 659C272.622 647.275 255.589 641.078 243.004 628.96C228.008 614.521 212.383 578.501 189 578z"/>
<path style="fill:#c28f77; stroke:none;" d="M307 578L307 579L310 579L307 578z"/>
<path style="fill:#ab7961; stroke:none;" d="M310.667 578.333L311.333 578.667L310.667 578.333z"/>
<path style="fill:#97674e; stroke:none;" d="M312.667 578.333L313.333 578.667L312.667 578.333M327 578L327 579L330 579L327 578z"/>
<path style="fill:#afadba; stroke:none;" d="M189 579L189 580L194 580L189 579z"/>
<path style="fill:#ab7961; stroke:none;" d="M314 579L314 580L317 580L314 579z"/>
<path style="fill:#97674e; stroke:none;" d="M317 579L317 580L326 580L317 579z"/>
<path style="fill:#ab7961; stroke:none;" d="M326.667 579.333L327.333 579.667L326.667 579.333z"/>
<path style="fill:#a8856e; stroke:none;" d="M328 579L328 580L333 580L328 579z"/>
<path style="fill:#7e4d38; stroke:none;" d="M376 579L376 583L377 583L376 579z"/>
<path style="fill:#a8856e; stroke:none;" d="M377.333 579.667L377.667 580.333L377.333 579.667z"/>
<path style="fill:#afadba; stroke:none;" d="M184 580L184 581L187 581L184 580M377.333 581.667L377.667 582.333L377.333 581.667z"/>
<path style="fill:#7e4d38; stroke:none;" d="M375 584L375 587L376 587L375 584z"/>
<path style="fill:#afadba; stroke:none;" d="M376.333 585.667L376.667 586.333L376.333 585.667z"/>
<path style="fill:#e9beae; stroke:none;" d="M324 589L323 593L330 591L324 589z"/>
<path style="fill:#7e4d38; stroke:none;" d="M374 589C368.922 611.152 354.624 624.413 343 643C348.623 643.086 351.775 637.124 354.986 633C362.304 623.602 377.899 601.714 374 589z"/>
<path style="fill:#c28f77; stroke:none;" d="M375.333 589.667L375.667 590.333L375.333 589.667z"/>
<path style="fill:#a8856e; stroke:none;" d="M327.667 592.333L328.333 592.667L327.667 592.333z"/>
<path style="fill:#ab7961; stroke:none;" d="M301 602C307.795 600.243 327.323 597.367 331 592C319.742 594.566 309.288 591.827 301 602z"/>
<path style="fill:#97674e; stroke:none;" d="M297 607L316 598.431L341 597C339.081 595.073 336.929 592.975 334.089 592.562C330.942 592.105 327.973 594.751 324.996 595.468C315.516 597.749 302.442 597.253 297 607z"/>
<path style="fill:#ab7961; stroke:none;" d="M374.333 592.667L374.667 593.333L374.333 592.667z"/>
<path style="fill:#c28f77; stroke:none;" d="M312.667 593.333L313.333 593.667L312.667 593.333M321 593L321 594L326 594L321 593M310.667 594.333L311.333 594.667L310.667 594.333z"/>
<path style="fill:#a8856e; stroke:none;" d="M338 594L338 595C344.656 598.718 346.973 601.222 347 609L346 609L346 607L345 607L345 617C353.179 616.426 361.61 604.658 363 597L353 607C351.165 598.591 345.956 595.506 338 594z"/>
<path style="fill:#afadba; stroke:none;" d="M374.333 594.667L374.667 595.333L374.333 594.667z"/>
<path style="fill:#7e4d38; stroke:none;" d="M308 601L308 602C323.125 598.417 331.194 596.385 344 606C341.328 590.553 318.508 597.218 308 601z"/>
<path style="fill:#afadba; stroke:none;" d="M373.333 597.667L373.667 598.333L373.333 597.667z"/>
<path style="fill:#3c3634; stroke:none;" d="M320.667 598.333L321.333 598.667L320.667 598.333z"/>
<path style="fill:#1e1d1d; stroke:none;" d="M296 616L329 611L328 617C335.714 613.282 332.199 607.87 332 601L339 612C343.094 603.431 335.967 599.36 328 598.304C316.672 596.802 296.155 602.879 296 616z"/>
<path style="fill:#3c3634; stroke:none;" d="M329.667 598.333L330.333 598.667L329.667 598.333M315.667 599.333L316.333 599.667L315.667 599.333M333.667 599.333L334.333 599.667L333.667 599.333z"/>
<path style="fill:#97674e; stroke:none;" d="M342.333 599.667L342.667 600.333L342.333 599.667z"/>
<path style="fill:#3c3634; stroke:none;" d="M336 600L336 601L341 607C342.608 602.751 339.978 600.829 336 600z"/>
<path style="fill:#afadba; stroke:none;" d="M372.333 600.667L372.667 601.333L372.333 600.667z"/>
<path style="fill:#3c3634; stroke:none;" d="M332 601C332.053 605.434 332.194 608.198 337 609L332 601z"/>
<path style="fill:#97674e; stroke:none;" d="M343.333 601.667L343.667 602.333L343.333 601.667z"/>
<path style="fill:#3c3634; stroke:none;" d="M306.667 602.333L307.333 602.667L306.667 602.333z"/>
<path style="fill:#7e4d38; stroke:none;" d="M302 605L305 604L302 605z"/>
<path style="fill:#97674e; stroke:none;" d="M344 603L342 608L344 603z"/>
<path style="fill:#afadba; stroke:none;" d="M371.333 603.667L371.667 604.333L371.333 603.667z"/>
<path style="fill:#7e4d38; stroke:none;" d="M296 609L299 608L296 609M341 607L340 611L341 611L341 607z"/>
<path style="fill:#97674e; stroke:none;" d="M295 608L295 616L296 616L295 608z"/>
<path style="fill:#434343; stroke:none;" d="M334 609L334 612L337 612L337 609L334 609z"/>
<path style="fill:#97674e; stroke:none;" d="M341.333 609.667L341.667 610.333L341.333 609.667z"/>
<path style="fill:#3c3634; stroke:none;" d="M295 610L295 614L296 614L295 610M337 610L337 614L338 614L337 610z"/>
<path style="fill:#c28f77; stroke:none;" d="M293 611L293 615L294 615L293 611z"/>
<path style="fill:#3c3634; stroke:none;" d="M297 616L297 617C309.26 614.437 318.42 610.319 329 618L329 611C318.261 611 306.733 610.892 297 616z"/>
<path style="fill:#97674e; stroke:none;" d="M339 611C331.462 621.46 314.527 628.296 304 618L300 620L327 625L327 626L317 625L317 626L323 626L323 627L307 628L307 629L317 634L315 638C321.642 639.963 334.725 637.867 338.106 630.725C340.017 626.69 339.413 621.353 341 617L333 622L341 611L339 611z"/>
<path style="fill:#516064; stroke:none;" d="M334 612L334 613L336 615L337 615L334 612z"/>
<path style="fill:#7e4d38; stroke:none;" d="M298 617L298 618L324 617L320 619C322.571 619.751 329.321 617.412 325.377 614.174C319.734 609.541 303.909 614.771 298 617z"/>
<path style="fill:#747070; stroke:none;" d="M333 613L335 617L336 613L333 613z"/>
<path style="fill:#434343; stroke:none;" d="M305.667 614.333L306.333 614.667L305.667 614.333z"/>
<path style="fill:#928f90; stroke:none;" d="M332 614L333 617L334 617L334 614L332 614z"/>
<path style="fill:#afadba; stroke:none;" d="M330 616L330 617L333 618L333 615L330 616z"/>
<path style="fill:#97674e; stroke:none;" d="M305 617L305 618L318 620L324 617L305 617z"/>
<path style="fill:#dad2ce; stroke:none;" d="M314 622L314 623C319.795 622.267 327.505 622.289 331 617L314 622z"/>
<path style="fill:#ab7961; stroke:none;" d="M304 618C306.788 621.929 316.063 621.627 319 618L304 618z"/>
<path style="fill:#afadba; stroke:none;" d="M326.667 618.333L327.333 618.667L326.667 618.333M323.667 619.333L324.333 619.667L323.667 619.333z"/>
<path style="fill:#ab7961; stroke:none;" d="M329.667 619.333L330.333 619.667L329.667 619.333z"/>
<path style="fill:#97674e; stroke:none;" d="M310 620L310 621L317 621L310 620z"/>
<path style="fill:#a8856e; stroke:none;" d="M318 620L318 621L321 621L318 620M327.667 620.333L328.333 620.667L327.667 620.333z"/>
<path style="fill:#c28f77; stroke:none;" d="M309 621L312 623L309 621z"/>
<path style="fill:#e9beae; stroke:none;" d="M311 621L311 622L315 622L311 621z"/>
<path style="fill:#c28f77; stroke:none;" d="M324.667 621.333L325.333 621.667L324.667 621.333z"/>
<path style="fill:#ddad97; stroke:none;" d="M312.667 622.333L313.333 622.667L312.667 622.333z"/>
<path style="fill:#e9beae; stroke:none;" d="M317 622L317 623L320 623L317 622z"/>
<path style="fill:#c28f77; stroke:none;" d="M320 622L320 623L323 623L320 622z"/>
<path style="fill:#7e4d38; stroke:none;" d="M323 629L323 631L335 625L323 629M341 644L337 651C340.232 649.439 342.94 647.583 341 644M334 651L332 654L332 655C334.785 654.266 335.832 653.471 334 651z"/>
<path style="fill:#97674e; stroke:none;" d="M268.667 652.333L269.333 652.667L268.667 652.333M270.667 653.333L271.333 653.667L270.667 653.333M272.667 654.333L273.333 654.667L272.667 654.333M274.667 655.333L275.333 655.667L274.667 655.333M276.667 656.333L277.333 656.667L276.667 656.333z"/>
<path style="fill:#7e4d38; stroke:none;" d="M320 661L320 662L331 656L320 661z"/>
<path style="fill:#97674e; stroke:none;" d="M278.667 657.333L279.333 657.667L278.667 657.333z"/>
<path style="fill:#ab7961; stroke:none;" d="M280.667 658.333L281.333 658.667L280.667 658.333z"/>
<path style="fill:#7e4d38; stroke:none;" d="M285 659L285 660L288 660L285 659M288.667 660.333L289.333 660.667L288.667 660.333z"/>
<path style="fill:#a8856e; stroke:none;" d="M288.667 661.333L289.333 661.667L288.667 661.333z"/>
<path style="fill:#7e4d38; stroke:none;" d="M291 661L291 662C300.154 664.255 309.936 666.395 319 663L291 661z"/>
<path style="fill:#a8856e; stroke:none;" d="M291.667 662.333L292.333 662.667L291.667 662.333M295.667 663.333L296.333 663.667L295.667 663.333z"/>
<path style="fill:#97674e; stroke:none;" d="M297.667 663.333L298.333 663.667L297.667 663.333z"/>
<path style="fill:#afadba; stroke:none;" d="M298 664L298 665L301 665L298 664z"/>
<path style="fill:#ab7961; stroke:none;" d="M301.667 664.333L302.333 664.667L301.667 664.333z"/>
<path style="fill:#97674e; stroke:none;" d="M303.667 664.333L304.333 664.667L303.667 664.333z"/>
<path style="fill:#afadba; stroke:none;" d="M314.667 664.333L315.333 664.667L314.667 664.333M304 665L304 666L312 666L304 665z"/>
</svg>
